<svg xmlns="http://www.w3.org/2000/svg" xmlns:xlink="http://www.w3.org/1999/xlink" viewBox="0 0 384 384" width="384" height="384" preserveAspectRatio="xMidYMid meet"><title>Fan Test</title><desc>Rendered Sandustry blueprint map</desc><style>image{image-rendering:pixelated}</style><defs>
  <pattern id="blueprint-block-grid" x="80" y="48" width="8" height="8" patternUnits="userSpaceOnUse"><path d="M 8 0 L 0 0 0 8 M 8 0 L 8 8 M 0 8 L 8 8" fill="none" stroke="#718096" stroke-width="1"/></pattern>
  <pattern id="blueprint-cell-grid" x="80" y="48" width="32" height="32" patternUnits="userSpaceOnUse"><path d="M 32 0 L 0 0 0 32 M 32 0 L 32 32 M 0 32 L 32 32" fill="none" stroke="#17202c" stroke-width="1.25"/></pattern>
  </defs><rect width="384" height="384" fill="#33a8ff"/><g opacity=".25"><rect width="384" height="384" fill="url(#blueprint-block-grid)"/><rect width="384" height="384" fill="url(#blueprint-cell-grid)"/></g><path d="M 207 175 L 207 209 L 241 209 L 241 175 Z M 207 271 L 207 305 L 241 305 L 241 271 Z M 143 239 L 143 273 L 177 273 L 177 239 Z M 111 175 L 111 209 L 145 209 L 145 175 Z M 143 111 L 143 145 L 177 145 L 177 111 Z M 207 79 L 207 113 L 241 113 L 241 79 Z M 271 111 L 271 145 L 305 145 L 305 111 Z M 303 175 L 303 209 L 337 209 L 337 175 Z M 271 239 L 271 273 L 305 273 L 305 239 Z" fill="none" stroke="#000000" stroke-width="2" stroke-linecap="butt" stroke-linejoin="miter"/><g><g data-structure-index="13"><image href="catalog/img__block.png" x="208" y="80" width="32" height="32" preserveAspectRatio="none" style="image-rendering:pixelated"/></g><g data-structure-index="12"><image href="catalog/img__block.png" x="144" y="112" width="32" height="32" preserveAspectRatio="none" style="image-rendering:pixelated"/></g><g data-structure-index="14"><image href="catalog/img__block.png" x="272" y="112" width="32" height="32" preserveAspectRatio="none" style="image-rendering:pixelated"/></g><g data-structure-index="11"><image href="catalog/img__block.png" x="112" y="176" width="32" height="32" preserveAspectRatio="none" style="image-rendering:pixelated"/></g><g data-structure-index="0"><image href="catalog/img__block.png" x="208" y="176" width="32" height="32" preserveAspectRatio="none" style="image-rendering:pixelated"/></g><g data-structure-index="15"><image href="catalog/img__block.png" x="304" y="176" width="32" height="32" preserveAspectRatio="none" style="image-rendering:pixelated"/></g><g data-structure-index="10"><image href="catalog/img__block.png" x="144" y="240" width="32" height="32" preserveAspectRatio="none" style="image-rendering:pixelated"/></g><g data-structure-index="16"><image href="catalog/img__block.png" x="272" y="240" width="32" height="32" preserveAspectRatio="none" style="image-rendering:pixelated"/></g><g data-structure-index="9"><image href="catalog/img__block.png" x="208" y="272" width="32" height="32" preserveAspectRatio="none" style="image-rendering:pixelated"/></g></g><g><g data-structure-index="2"><image href="catalog/mods__kinetic_field_emitter.png" x="176" y="48" width="46" height="32" preserveAspectRatio="none" transform="rotate(270 224 64)" style="image-rendering:pixelated"/></g><g data-structure-index="6"><image href="catalog/mods__kinetic_field_emitter_diagonal.png" x="96" y="96" width="30" height="30" preserveAspectRatio="none" transform="rotate(270 128 96)" style="image-rendering:pixelated"/></g><g data-structure-index="3"><image href="catalog/mods__kinetic_field_emitter_diagonal.png" x="288" y="96" width="30" height="30" preserveAspectRatio="none" style="image-rendering:pixelated"/></g><g data-structure-index="5"><image href="catalog/mods__kinetic_field_emitter.png" x="48" y="176" width="46" height="32" preserveAspectRatio="none" transform="rotate(180 96 192)" style="image-rendering:pixelated"/></g><g data-structure-index="1"><image href="catalog/mods__kinetic_field_emitter.png" x="304" y="176" width="46" height="32" preserveAspectRatio="none" style="image-rendering:pixelated"/></g><g data-structure-index="7"><image href="catalog/mods__kinetic_field_emitter_diagonal.png" x="96" y="288" width="30" height="30" preserveAspectRatio="none" transform="rotate(180 128 288)" style="image-rendering:pixelated"/></g><g data-structure-index="8"><image href="catalog/mods__kinetic_field_emitter_diagonal.png" x="288" y="288" width="30" height="30" preserveAspectRatio="none" transform="rotate(90 320 288)" style="image-rendering:pixelated"/></g><g data-structure-index="4"><image href="catalog/mods__kinetic_field_emitter.png" x="176" y="304" width="46" height="32" preserveAspectRatio="none" transform="rotate(90 224 320)" style="image-rendering:pixelated"/></g></g></svg>
