<svg xmlns="http://www.w3.org/2000/svg" xmlns:xlink="http://www.w3.org/1999/xlink" viewBox="0 0 578 258" width="578" height="258" preserveAspectRatio="xMidYMid meet"><title>launchers</title><desc>Rendered Sandustry blueprint map</desc><style>image{image-rendering:pixelated}</style><defs>
  <pattern id="blueprint-block-grid" x="50" y="50" width="8" height="8" patternUnits="userSpaceOnUse"><path d="M 8 0 L 0 0 0 8 M 8 0 L 8 8 M 0 8 L 8 8" fill="none" stroke="#718096" stroke-width="1"/></pattern>
  <pattern id="blueprint-cell-grid" x="50" y="50" width="32" height="32" patternUnits="userSpaceOnUse"><path d="M 32 0 L 0 0 0 32 M 32 0 L 32 32 M 0 32 L 32 32" fill="none" stroke="#17202c" stroke-width="1.25"/></pattern>
  </defs><rect width="578" height="258" fill="#33a8ff"/><g opacity=".25"><rect width="578" height="258" fill="url(#blueprint-block-grid)"/><rect width="578" height="258" fill="url(#blueprint-cell-grid)"/></g><g data-layer="pipes"><g data-layer="pipe-bridges"></g></g><g data-layer="foundation-outline"></g><g data-layer="foundation-structures"></g><g data-layer="structures"><g data-structure-index="18"><image href="catalog/mods__launcher_left_mk2.png" x="240" y="144" width="36" height="52" preserveAspectRatio="none" style="image-rendering:pixelated"/></g><g data-structure-index="16"><image href="catalog/mods__launcher_right_mk2.png" x="304" y="144" width="36" height="52" preserveAspectRatio="none" style="image-rendering:pixelated"/></g><g data-structure-index="14"><image href="catalog/mods__launcher_right_mk2.png" x="400" y="144" width="36" height="52" preserveAspectRatio="none" style="image-rendering:pixelated"/></g><g data-structure-index="12"><image href="catalog/mods__launcher_left_mk2.png" x="464" y="144" width="36" height="52" preserveAspectRatio="none" style="image-rendering:pixelated"/></g><g data-structure-index="21"><image href="catalog/mods__launcher_right_mk2.png" x="48" y="176" width="36" height="52" preserveAspectRatio="none" style="image-rendering:pixelated"/></g><g data-structure-index="20"><image href="catalog/mods__launcher_left_mk2.png" x="112" y="176" width="36" height="52" preserveAspectRatio="none" style="image-rendering:pixelated"/></g><g data-structure-index="13"><image href="catalog/mods__launcher_right_mk2.png" x="368" y="176" width="36" height="52" preserveAspectRatio="none" style="image-rendering:pixelated"/></g><g data-structure-index="11"><image href="catalog/mods__launcher_left_mk2.png" x="496" y="176" width="36" height="52" preserveAspectRatio="none" style="image-rendering:pixelated"/></g><g data-structure-index="19"><image href="catalog/mods__launcher_mk2.png" x="176" y="176" width="36" height="36" preserveAspectRatio="none" transform="rotate(270 194 194)" style="image-rendering:pixelated"/></g><g data-structure-index="17"><image href="catalog/mods__launcher_mk2.png" x="240" y="176" width="36" height="36" preserveAspectRatio="none" transform="rotate(270 258 194)" style="image-rendering:pixelated"/></g><g data-structure-index="15"><image href="catalog/mods__launcher_mk2.png" x="304" y="176" width="36" height="36" preserveAspectRatio="none" transform="rotate(270 322 194)" style="image-rendering:pixelated"/></g><g data-structure-index="4"><image href="catalog/img__launcher_left.png" x="240" y="48" width="36" height="52" preserveAspectRatio="none" style="image-rendering:pixelated"/></g><g data-structure-index="6"><image href="catalog/img__launcher_right.png" x="304" y="48" width="36" height="52" preserveAspectRatio="none" style="image-rendering:pixelated"/></g><g data-structure-index="8"><image href="catalog/img__launcher_right.png" x="400" y="48" width="36" height="52" preserveAspectRatio="none" style="image-rendering:pixelated"/></g><g data-structure-index="9"><image href="catalog/img__launcher_left.png" x="464" y="48" width="36" height="52" preserveAspectRatio="none" style="image-rendering:pixelated"/></g><g data-structure-index="0"><image href="catalog/img__launcher_right.png" x="48" y="80" width="36" height="52" preserveAspectRatio="none" style="image-rendering:pixelated"/></g><g data-structure-index="1"><image href="catalog/img__launcher_left.png" x="112" y="80" width="36" height="52" preserveAspectRatio="none" style="image-rendering:pixelated"/></g><g data-structure-index="2"><image href="catalog/img__launcher.png" x="176" y="80" width="36" height="36" preserveAspectRatio="none" transform="rotate(270 194 98)" style="image-rendering:pixelated"/></g><g data-structure-index="3"><image href="catalog/img__launcher.png" x="240" y="80" width="36" height="36" preserveAspectRatio="none" transform="rotate(270 258 98)" style="image-rendering:pixelated"/></g><g data-structure-index="5"><image href="catalog/img__launcher.png" x="304" y="80" width="36" height="36" preserveAspectRatio="none" transform="rotate(270 322 98)" style="image-rendering:pixelated"/></g><g data-structure-index="7"><image href="catalog/img__launcher_right.png" x="368" y="80" width="36" height="52" preserveAspectRatio="none" style="image-rendering:pixelated"/></g><g data-structure-index="10"><image href="catalog/img__launcher_left.png" x="496" y="80" width="36" height="52" preserveAspectRatio="none" style="image-rendering:pixelated"/></g></g></svg>
