<svg xmlns="http://www.w3.org/2000/svg" xmlns:xlink="http://www.w3.org/1999/xlink" viewBox="0 0 256 448" width="256" height="448" preserveAspectRatio="xMidYMid meet"><title>logic</title><desc>Rendered Sandustry blueprint map</desc><style>image{image-rendering:pixelated}</style><defs>
  <pattern id="blueprint-block-grid" x="48" y="48" width="8" height="8" patternUnits="userSpaceOnUse"><path d="M 8 0 L 0 0 0 8 M 8 0 L 8 8 M 0 8 L 8 8" fill="none" stroke="#718096" stroke-width="1"/></pattern>
  <pattern id="blueprint-cell-grid" x="48" y="48" width="32" height="32" patternUnits="userSpaceOnUse"><path d="M 32 0 L 0 0 0 32 M 32 0 L 32 32 M 0 32 L 32 32" fill="none" stroke="#17202c" stroke-width="1.25"/></pattern>
  </defs><rect width="256" height="448" fill="#33a8ff"/><g opacity=".25"><rect width="256" height="448" fill="url(#blueprint-block-grid)"/><rect width="256" height="448" fill="url(#blueprint-cell-grid)"/></g><g data-layer="pipes"><g data-layer="pipe-bridges"></g></g><g data-layer="foundation-outline"></g><g data-layer="foundation-structures"></g><g data-layer="structures"><clipPath id="asset-clip-0"><rect x="48" y="0" width="32" height="448"/></clipPath><g data-structure-index="0"><image href="catalog/mods__signalSensor.png" x="48" y="48" width="64" height="32" preserveAspectRatio="none" clip-path="url(#asset-clip-0)" style="image-rendering:pixelated"/></g><clipPath id="asset-clip-1"><rect x="112" y="0" width="32" height="448"/></clipPath><g data-structure-index="1"><image href="catalog/mods__signalPulseSensor.png" x="112" y="48" width="64" height="32" preserveAspectRatio="none" clip-path="url(#asset-clip-1)" style="image-rendering:pixelated"/></g><clipPath id="asset-clip-2"><rect x="176" y="0" width="32" height="448"/></clipPath><g data-structure-index="2"><image href="catalog/mods__signalPresenceSensor.png" x="176" y="48" width="64" height="32" preserveAspectRatio="none" clip-path="url(#asset-clip-2)" style="image-rendering:pixelated"/></g><clipPath id="asset-clip-3"><rect x="48" y="0" width="32" height="448"/></clipPath><g data-structure-index="3"><image href="catalog/mods__signalBuffer.png" x="48" y="112" width="64" height="32" preserveAspectRatio="none" clip-path="url(#asset-clip-3)" style="image-rendering:pixelated"/></g><clipPath id="asset-clip-4"><rect x="112" y="0" width="32" height="448"/></clipPath><g data-structure-index="4"><image href="catalog/mods__signalToggle.png" x="112" y="112" width="64" height="32" preserveAspectRatio="none" clip-path="url(#asset-clip-4)" style="image-rendering:pixelated"/></g><clipPath id="asset-clip-5"><rect x="176" y="0" width="32" height="448"/></clipPath><g data-structure-index="5"><image href="catalog/mods__signalLamp.png" x="144" y="112" width="64" height="32" preserveAspectRatio="none" clip-path="url(#asset-clip-5)" style="image-rendering:pixelated"/></g><clipPath id="asset-clip-6"><rect x="48" y="0" width="32" height="448"/></clipPath><g data-structure-index="6"><image href="catalog/mods__signalAnd.png" x="48" y="176" width="64" height="32" preserveAspectRatio="none" clip-path="url(#asset-clip-6)" style="image-rendering:pixelated"/></g><clipPath id="asset-clip-7"><rect x="112" y="0" width="32" height="448"/></clipPath><g data-structure-index="7"><image href="catalog/mods__signalOr.png" x="112" y="176" width="64" height="32" preserveAspectRatio="none" clip-path="url(#asset-clip-7)" style="image-rendering:pixelated"/></g><clipPath id="asset-clip-8"><rect x="176" y="0" width="32" height="448"/></clipPath><g data-structure-index="8"><image href="catalog/mods__signalNot.png" x="176" y="176" width="64" height="32" preserveAspectRatio="none" clip-path="url(#asset-clip-8)" style="image-rendering:pixelated"/></g><clipPath id="asset-clip-9"><rect x="48" y="0" width="32" height="448"/></clipPath><g data-structure-index="9"><image href="catalog/mods__signalNand.png" x="48" y="240" width="64" height="32" preserveAspectRatio="none" clip-path="url(#asset-clip-9)" style="image-rendering:pixelated"/></g><clipPath id="asset-clip-10"><rect x="112" y="0" width="32" height="448"/></clipPath><g data-structure-index="10"><image href="catalog/mods__signalNor.png" x="112" y="240" width="64" height="32" preserveAspectRatio="none" clip-path="url(#asset-clip-10)" style="image-rendering:pixelated"/></g><clipPath id="asset-clip-11"><rect x="176" y="0" width="32" height="448"/></clipPath><g data-structure-index="11"><image href="catalog/mods__signalXor.png" x="176" y="240" width="64" height="32" preserveAspectRatio="none" clip-path="url(#asset-clip-11)" style="image-rendering:pixelated"/></g><clipPath id="asset-clip-12"><rect x="48" y="0" width="32" height="448"/></clipPath><g data-structure-index="12"><image href="catalog/mods__signalXnor.png" x="48" y="304" width="64" height="32" preserveAspectRatio="none" clip-path="url(#asset-clip-12)" style="image-rendering:pixelated"/></g><clipPath id="asset-clip-13"><rect x="112" y="0" width="32" height="448"/></clipPath><g data-structure-index="13"><image href="catalog/mods__signalRepeater.png" x="112" y="304" width="64" height="32" preserveAspectRatio="none" clip-path="url(#asset-clip-13)" style="image-rendering:pixelated"/></g><clipPath id="asset-clip-14"><rect x="176" y="0" width="32" height="448"/></clipPath><g data-structure-index="14"><image href="catalog/mods__signalLamp.png" x="176" y="304" width="64" height="32" preserveAspectRatio="none" clip-path="url(#asset-clip-14)" style="image-rendering:pixelated"/></g><clipPath id="asset-clip-16"><rect x="48" y="0" width="32" height="448"/></clipPath><g data-structure-index="16"><image href="catalog/mods__signalToggle.png" x="48" y="368" width="64" height="32" preserveAspectRatio="none" clip-path="url(#asset-clip-16)" style="image-rendering:pixelated"/></g><clipPath id="asset-clip-15"><rect x="112" y="0" width="32" height="448"/></clipPath><g data-structure-index="15"><image href="catalog/mods__signalBuffer.png" x="112" y="368" width="64" height="32" preserveAspectRatio="none" clip-path="url(#asset-clip-15)" style="image-rendering:pixelated"/></g><clipPath id="asset-clip-17"><rect x="174" y="0" width="36" height="448"/></clipPath><g data-structure-index="17"><image href="catalog/mods__signalGate.png" x="138" y="366" width="108" height="36" preserveAspectRatio="none" clip-path="url(#asset-clip-17)" style="image-rendering:pixelated"/></g></g><path d="M 140 140 C 150 146 170 134 180 116" stroke="#00ff99" fill="none" stroke-linecap="round" stroke-width="3" opacity=".7"/><path d="M 140 140 C 150 233.3135 170 349.3135 180 372" stroke="#00ff99" fill="none" stroke-linecap="round" stroke-width="3" opacity=".7"/><path d="M 140 204 C 118 228.4997 74 248.4997 52 244" stroke="#ff3333" fill="none" stroke-linecap="round" stroke-width="3" opacity=".7"/><path d="M 64 128 L 116 116" stroke="#ff3333" fill="none" stroke-linecap="round" stroke-width="3" opacity=".7"/><path d="M 140 76 C 150 118.7141 170 170.7141 180 180" stroke="#ff3333" fill="none" stroke-linecap="round" stroke-width="3" opacity=".7"/><path d="M 140 332 C 137 357 131 383 128 384" stroke="#ff3333" fill="none" stroke-linecap="round" stroke-width="3" opacity=".7"/></svg>
