<svg xmlns="http://www.w3.org/2000/svg" xmlns:xlink="http://www.w3.org/1999/xlink" viewBox="0 0 416 128" width="416" height="128" preserveAspectRatio="xMidYMid meet"><title>pyros</title><desc>Rendered Sandustry blueprint map</desc><style>image{image-rendering:pixelated}</style><defs>
  <pattern id="blueprint-block-grid" x="48" y="48" width="8" height="8" patternUnits="userSpaceOnUse"><path d="M 8 0 L 0 0 0 8 M 8 0 L 8 8 M 0 8 L 8 8" fill="none" stroke="#718096" stroke-width="1"/></pattern>
  <pattern id="blueprint-cell-grid" x="48" y="48" width="32" height="32" patternUnits="userSpaceOnUse"><path d="M 32 0 L 0 0 0 32 M 32 0 L 32 32 M 0 32 L 32 32" fill="none" stroke="#17202c" stroke-width="1.25"/></pattern>
  </defs><rect width="416" height="128" fill="#33a8ff"/><g opacity=".25"><rect width="416" height="128" fill="url(#blueprint-block-grid)"/><rect width="416" height="128" fill="url(#blueprint-cell-grid)"/></g><path d="M 47 47 L 47 81 L 81 81 L 81 47 Z M 143 47 L 143 81 L 177 81 L 177 47 Z M 239 47 L 239 81 L 273 81 L 273 47 Z M 335 47 L 335 81 L 369 81 L 369 47 Z" fill="none" stroke="#000000" stroke-width="2" stroke-linecap="butt" stroke-linejoin="miter"/><g><g data-structure-index="0"><image href="catalog/mods__heat_cannon.png" x="48" y="48" width="46" height="32" preserveAspectRatio="none" style="image-rendering:pixelated"/></g><g data-structure-index="1"><image href="catalog/mods__heat_cannon.png" x="144" y="48" width="46" height="32" preserveAspectRatio="none" transform="rotate(270 160 64)" style="image-rendering:pixelated"/></g><g data-structure-index="2"><image href="catalog/mods__heat_cannon.png" x="240" y="48" width="46" height="32" preserveAspectRatio="none" transform="rotate(180 256 64)" style="image-rendering:pixelated"/></g><g data-structure-index="3"><image href="catalog/mods__heat_cannon.png" x="336" y="48" width="46" height="32" preserveAspectRatio="none" transform="rotate(90 352 64)" style="image-rendering:pixelated"/></g></g><g></g></svg>
